<svg width="1440" height="1800" viewBox="0 0 1440 1800" fill="none" xmlns="http://www.w3.org/2000/svg">
  <rect width="1440" height="1800" fill="#E8D9CB"/>
  <rect x="70" y="72" width="1300" height="1656" rx="42" fill="url(#bg)"/>
  <circle cx="1140" cy="348" r="220" fill="#E8B48E" fill-opacity="0.72"/>
  <circle cx="296" cy="1464" r="268" fill="#5D7266" fill-opacity="0.58"/>
  <rect x="150" y="180" width="676" height="1044" rx="28" fill="#271D19"/>
  <rect x="880" y="240" width="394" height="576" rx="28" fill="#F6EEE6" fill-opacity="0.76"/>
  <rect x="878" y="894" width="430" height="506" rx="28" fill="#A95B35"/>
  <path d="M276 332C376 252 456 240 548 270C660 308 742 418 758 554C772 674 734 804 642 898C542 1002 428 1020 322 968C226 920 164 806 160 666C156 524 182 408 276 332Z" fill="url(#figure)"/>
  <path d="M1005 1001C1042 934 1123 888 1208 902C1268 912 1324 954 1354 1018C1385 1084 1382 1162 1348 1223C1308 1292 1232 1341 1144 1337C1064 1334 994 1283 962 1212C930 1138 935 1063 1005 1001Z" fill="#D97A4A"/>
  <path d="M970 1270C1014 1203 1115 1165 1210 1184C1288 1200 1352 1260 1376 1342V1400H934C938 1353 948 1308 970 1270Z" fill="#6D3820"/>
  <rect x="908" y="312" width="338" height="94" rx="18" fill="#241B18"/>
  <text x="948" y="370" fill="#F8EFE5" font-family="Arial, sans-serif" font-size="38" font-weight="700" letter-spacing="6">MINGGU STUDIO</text>
  <text x="914" y="480" fill="#2A201C" font-family="Arial, sans-serif" font-size="28" letter-spacing="8">EDITORIAL PORTFOLIO</text>
  <text x="914" y="540" fill="#2A201C" font-family="Arial, sans-serif" font-size="76" font-weight="700">Quiet</text>
  <text x="914" y="622" fill="#2A201C" font-family="Arial, sans-serif" font-size="76" font-weight="700">Drama</text>
  <text x="914" y="706" fill="#2A201C" font-family="Arial, sans-serif" font-size="24" letter-spacing="4">CAMPAIGN FILM / DIRECTION / DIGITAL</text>
  <text x="952" y="1040" fill="#F9F1E8" font-family="Arial, sans-serif" font-size="26" letter-spacing="8">DUMMY IMAGE</text>
  <text x="952" y="1124" fill="#F9F1E8" font-family="Arial, sans-serif" font-size="96" font-weight="700">Monsoon</text>
  <text x="952" y="1224" fill="#F9F1E8" font-family="Arial, sans-serif" font-size="96" font-weight="700">Signal</text>
  <text x="952" y="1316" fill="#F9F1E8" font-family="Arial, sans-serif" font-size="24" letter-spacing="4">PLACEHOLDER VISUAL / HERO POSTER</text>
  <defs>
    <linearGradient id="bg" x1="226" y1="162" x2="1276" y2="1660" gradientUnits="userSpaceOnUse">
      <stop stop-color="#F8F1E8"/>
      <stop offset="1" stop-color="#D9C6B5"/>
    </linearGradient>
    <linearGradient id="figure" x1="206" y1="286" x2="702" y2="1004" gradientUnits="userSpaceOnUse">
      <stop stop-color="#6A3A23"/>
      <stop offset="1" stop-color="#2A201C"/>
    </linearGradient>
  </defs>
</svg>
