<svg width="1200" height="900" viewBox="0 0 1200 900" fill="none" xmlns="http://www.w3.org/2000/svg">
  <rect width="1200" height="900" fill="#E7D9CC"/>
  <rect x="42" y="42" width="1116" height="816" rx="28" fill="url(#bg)"/>
  <circle cx="934" cy="252" r="172" fill="#E9B68E"/>
  <path d="M266 212C354 150 454 144 544 178C668 224 754 332 770 470C782 584 732 692 638 756C532 830 392 834 286 762C190 698 126 580 126 460C126 352 178 276 266 212Z" fill="url(#figure)"/>
  <rect x="790" y="118" width="260" height="78" rx="18" fill="#241B18"/>
  <text x="830" y="167" fill="#FAF1E8" font-family="Arial, sans-serif" font-size="30" font-weight="700" letter-spacing="4">PROJECT 01</text>
  <text x="804" y="340" fill="#271D19" font-family="Arial, sans-serif" font-size="24" letter-spacing="8">CAMPAIGN FILM</text>
  <text x="804" y="424" fill="#271D19" font-family="Arial, sans-serif" font-size="86" font-weight="700">Monsoon</text>
  <text x="804" y="512" fill="#271D19" font-family="Arial, sans-serif" font-size="86" font-weight="700">Signal</text>
  <text x="804" y="606" fill="#271D19" font-family="Arial, sans-serif" font-size="20" letter-spacing="4">DUMMY VISUAL FOR EDITORIAL CASE STUDY</text>
  <defs>
    <linearGradient id="bg" x1="146" y1="86" x2="1002" y2="838" gradientUnits="userSpaceOnUse">
      <stop stop-color="#FBF5EE"/>
      <stop offset="1" stop-color="#D5C0AF"/>
    </linearGradient>
    <linearGradient id="figure" x1="202" y1="162" x2="716" y2="766" gradientUnits="userSpaceOnUse">
      <stop stop-color="#2E221D"/>
      <stop offset="1" stop-color="#865032"/>
    </linearGradient>
  </defs>
</svg>
